# xmcd CD database file
#
# Track frame offsets:
#	150
#	34575
#	63150
#	107400
#	128475
#	154575
#	175425
#	204000
#	235275
#
# Disc length: 3534 seconds
#
# Revision: 0
# Processed by: cddbd v1.5.1PL2 Copyright (c) Steve Scherf et al.
# Submitted via: CDex 1.51
#
DISCID=640dcc09
DTITLE=¯Q³¥ÂÈ - The Jazz Piano Trio¡GIS YOU IS OR IS YOU AIN¡¦T MY BABY
DYEAR=2006
DGENRE=Jazz
TTITLE0=I'LL CLOSE MY EYES
TTITLE1=IS YOU AIN¡¦T MY BABY
TTITLE2=MR. BOW-TIE
TTITLE3=PROMETHEAN
TTITLE4=SKYLARK
TTITLE5=STRANG LITTLE SMILE
TTITLE6=DUID DEED
TTITLE7=ECLYPSO
TTITLE8=IS YOU AIN¡¦T MY BABY
EXTD=YEAR: 2006
EXTT0=
EXTT1=
EXTT2=
EXTT3=
EXTT4=
EXTT5=
EXTT6=
EXTT7=
EXTT8=
PLAYORDER=
